OpenSim_Sub01_CSBaseline_RCS.mot
version=1
nRows=41
nColumns=11
inDegrees=no
endheader
time	Top_Thigh	Med_Thigh	Bot_Thigh	Top_Shank	2nd_Top_Shank	2nd_Bot_Shank	Bot_Shank	BNOx	BNOy	BNOZ
0	1300.95527512	1242.98983760	1162.90732786	961.00000000	1079	946.99998458	920.00000001	58.75642702	-72.80889131	137.61142409
0.01000000	1301.09933663	1243.04822730	1163.18122400	961.00000000	1079	946.99999262	919.99999996	58.73526980	-72.81381911	137.64183589
0.02000000	1301.22710809	1243.16538774	1163.36134074	961.00000000	1079.00000000	946.99989340	919.99999989	58.71488967	-72.82195548	137.67681289
0.03000000	1301.33529155	1243.31946210	1163.46110572	961.00000000	1079.00000000	946.99972007	919.99999982	58.69528867	-72.83268210	137.71512351
0.04000000	1301.42060360	1243.48837522	1163.49421268	961.00000000	1079.00000000	946.99950622	919.99999974	58.67646583	-72.84537313	137.75552681
0.05000000	1301.47976084	1243.65005197	1163.47435533	960.99999999	1079.00000000	946.99928543	919.99999967	58.65842018	-72.85940272	137.79678188
0.06000000	1301.50947989	1243.78241721	1163.41522738	960.99999999	1079.00000000	946.99909126	919.99999962	58.64115075	-72.87414503	137.83764777
0.07000000	1301.50647734	1243.86339581	1163.33052257	960.99999999	1079.00000000	946.99895732	919.99999959	58.62465654	-72.88897420	137.87688358
0.08000000	1301.46746980	1243.87091261	1163.23393460	960.99999999	1079.00000000	946.99891716	919.99999959	58.60893660	-72.90326440	137.91324837
0.09000000	1301.38917386	1243.78289248	1163.13915721	960.99999999	1079.00000000	946.99900437	919.99999964	58.59398994	-72.91638978	137.94550121
0.10000000	1301.26830613	1243.57726029	1163.05988410	961.00000000	1079.00000000	946.99925253	919.99999974	58.57981558	-72.92772448	137.97240119
0.11000000	1301.10158322	1243.23194089	1163.00980901	961.00000000	1079.00000000	946.99969522	919.99999990	58.56641256	-72.93664267	137.99270737
0.12000000	1300.88650877	1242.72710730	1163.00179792	961.00000000	1079.00000000	947.00035961	920.00000012	58.55377754	-72.94254508	138.00524886
0.13000000	1300.63868864	1242.09464029	1163.02967914	961.00000001	1079.00000000	947.00112559	920.00000037	58.54185269	-72.94544360	138.01046547
0.14000000	1300.39183091	1241.41812835	1163.06824333	961.00000001	1079.00000000	947.00172580	920.00000056	58.53052576	-72.94596133	138.01040771
0.15000000	1300.18043069	1240.78340815	1163.09145338	961.00000001	1079.00000000	947.00188642	920.00000061	58.51968210	-72.94474794	138.00719612
0.16000000	1300.03898311	1240.27631635	1163.07327221	961.00000001	1079.00000000	947.00133368	920.00000043	58.50920708	-72.94245308	138.00295123
0.17000000	1300.00197044	1239.98266466	1162.98767322	961.00000000	1079.00000000	946.99979397	919.99999993	58.49898609	-72.93972636	137.99979307
0.18000000	1300.08683876	1239.95516702	1162.82256208	960.99999999	1079.00000000	946.99724299	919.99999911	58.48894325	-72.93714431	137.99913648
0.19000000	1300.26041342	1240.14819180	1162.60724223	960.99999997	1079.00000000	946.99439714	919.99999820	58.47911774	-72.93506626	138.00030110
0.20000000	1300.48016075	1240.49792480	1162.37867091	960.99999996	1079.00000000	946.99210978	919.99999747	58.46957004	-72.93381141	138.00221916
0.21000000	1300.70354708	1240.94055182	1162.17380539	960.99999995	1079.00000000	946.99123429	919.99999719	58.46036062	-72.93369894	138.00382290
0.22000000	1300.88803876	1241.41225863	1162.02960292	960.99999996	1079.00000000	946.99262401	919.99999764	58.45154994	-72.93504805	138.00404457
0.23000000	1300.99110212	1241.84923105	1161.98302076	960.99999999	1079.00000000	946.99713232	919.99999908	58.44319847	-72.93817793	138.00181640
0.24000000	1300.97331117	1242.19103167	1162.06849571	961.00000003	1079.00000000	947.00546171	920.00000175	58.43534497	-72.94338381	137.99620758
0.25000000	1300.84173973	1242.42775023	1162.28275141	961.00000008	1079.00000000	947.01605738	920.00000514	58.42770353	-72.95060226	137.98833637
0.26000000	1300.63925730	1242.58837238	1162.59347980	961.00000013	1079.00000000	947.02562682	920.00000821	58.41973825	-72.95949382	137.98089841
0.27000000	1300.40965414	1242.70288428	1162.96762602	961.00000016	1079.00000000	947.03083285	920.00000988	58.41090683	-72.96971191	137.97662992
0.28000000	1300.19672054	1242.80127209	1163.37213522	961.00000015	1079.00000000	947.02833826	920.00000908	58.40066697	-72.98090994	137.97826710
0.29000000	1300.04424678	1242.91352200	1163.77395253	961.00000008	1079.00000000	947.01480586	920.00000474	58.38847634	-72.99274133	137.98854618
0.30000000	1299.99519456	1243.06901224	1164.14035772	960.99999993	1079.00000000	946.98703216	919.99999585	58.37380009	-73.00486629	138.01015609
0.31000000	1300.06031499	1243.27348779	1164.45163842	960.99999973	1079.00000000	946.94701132	919.99998303	58.35639254	-73.01720875	138.04394783
0.32000000	1300.20851643	1243.50199314	1164.70497999	960.99999950	1079.00000000	946.90348941	919.99996908	58.33638376	-73.03003526	138.08838485
0.33000000	1300.40591084	1243.72752104	1164.89869707	960.99999931	1079.00000000	946.86566379	919.99995697	58.31392888	-73.04363526	138.14177103
0.34000000	1300.61861016	1243.92306426	1165.03110433	960.99999919	1079.00000000	946.84273178	919.99994962	58.28918306	-73.05829820	138.20241027
0.35000000	1300.81272636	1244.06161552	1165.10051641	960.99999920	1079.00000000	946.84389070	919.99994999	58.26230145	-73.07431352	138.26860644
0.36000000	1300.95437138	1244.11616758	1165.10524798	960.99999937	1079.00000000	946.87833790	919.99996103	58.23343921	-73.09197066	138.33866343
0.37000000	1301.00965718	1244.05971319	1165.04361368	960.99999977	1079.00000000	946.95527071	919.99998567	58.20275148	-73.11155905	138.41088513
0.38000000	1300.94731516	1243.86784297	1164.91455837	961.00000043	1079.00000000	947.08287951	920.00002647	58.17042001	-73.13332759	138.48359098
0.39000000	1300.77527134	1243.55501952	1164.72645650	961.00000128	1079.00000000	947.25428784	920.00007988	58.13702464	-73.15691821	138.55533327
0.40000000	1300.53162388	1243.16562915	1164.49494146	961.00000221	1079.00000000	947.45102077	920.00013770	58.10345160	-73.18150562	138.62484350
